<?xml version="1.0" encoding="UTF-8" standalone="no"?>
<svg
   viewBox="0 0 500 500.57886"
   version="1.1"
   id="svg_null"
   sodipodi:docname="315949ff623122869508aabcd20d62f0.svg"
   width="500"
   height="500.57886"
   xmlns:inkscape="http://www.inkscape.org/namespaces/inkscape"
   xmlns:sodipodi="http://sodipodi.sourceforge.net/DTD/sodipodi-0.dtd"
   xmlns="http://www.w3.org/2000/svg"
   xmlns:svg="http://www.w3.org/2000/svg">
  <defs
     id="defs23" />
  <sodipodi:namedview
     id="namedview21"
     pagecolor="#ffffff"
     bordercolor="#666666"
     borderopacity="1.0"
     inkscape:pageshadow="2"
     inkscape:pageopacity="0.0"
     inkscape:pagecheckerboard="0" />
  <g
     id="root"
     stroke="none"
     stroke-width="1"
     fill="none"
     fill-rule="evenodd"
     transform="translate(0,0.57885183)">
    <rect
       id="background.primary"
       fill="#40356f"
       x="0"
       y="0"
       width="500"
       height="500" />
    <rect
       id="frame.secondary"
       x="163"
       y="94"
       width="175"
       height="175"
       display="none"
       fill="#645fce" />
    <svg
       width="175"
       height="175"
       viewBox="0 0 175 175"
       version="1.1"
       id="svg_frame.secondary"
       x="163"
       y="94"
       fill="#645fce">
      <g
         id="Page-1"
         stroke="#645fce"
         stroke-width="1"
         fill="none"
         fill-rule="evenodd">
        <polygon
           id="polygon4"
           fill="#645fce"
           points="162,131.25 87,175 12,131.25 12,43.75 87,0 162,43.75 " />
      </g>
    </svg>
    <path
       d="m 178.443,329.438 134.543,-247.05 0.575,-1.056 -2.086,-1.164 -0.574,1.056 -134.544,247.05 -0.575,1.056 2.086,1.164 z m 71.439,0 134.543,-247.05 0.575,-1.056 -2.085,-1.164 -0.575,1.056 -134.544,247.05 -0.575,1.056 2.086,1.164 z m -115.46,32.473 130.971,-279.59 0.51,-1.088 -2.151,-1.033 -0.51,1.089 -130.972,279.59 -0.51,1.088 2.151,1.033 0.51,-1.089 z m 192.725,-30.21 -209.554,-255.486 -0.76,-0.927 -1.833,1.54 0.76,0.927 209.555,255.487 0.76,0.927 1.833,-1.54 -0.76,-0.927 z M 370.073,295.631 170.043,3.99 169.364,3 l -1.956,1.374 0.68,0.99 200.029,291.641 0.679,0.99 1.956,-1.374 -0.68,-0.99 z"
       id="shape.primary"
       fill="#40356f" />
    <g
       id="Group"
       transform="translate(40,295)">
      <rect
         id="Rectangle-22"
         x="0"
         y="0"
         width="420"
         height="60" />
      <text
         id="headerText.secondary"
         fill="#645fce"
         font-family="Orbitron"
         font-size="50px"
         font-weight="500"
         letter-spacing="3"
         data-text-alignment="C"
         font-style="normal"><tspan
           x="56.068924"
           y="48"
           id="tspan10">Poormans</tspan></text>
    </g>
    <g
       id="Group-2"
       transform="translate(40,364)">
      <rect
         id="Rectangle"
         x="0"
         y="0"
         width="420"
         height="40" />
      <text
         id="captionText.secondary"
         fill="#645fce"
         opacity="0.8"
         font-family="Orbitron"
         font-size="35px"
         font-weight="500"
         line-spacing="35"
         letter-spacing="2.1"
         data-text-alignment="C"
         font-style="normal"><tspan
           x="127.58989"
           y="33.5"
           id="tspan15">Discord</tspan></text>
    </g>
  </g>
</svg>
